<svg aria-hidden="true" style="position: absolute; width: 0; height: 0; overflow: hidden;" version="1.1" xmlns="http://www.w3.org/2000/svg" xmlns:xlink="http://www.w3.org/1999/xlink">
<defs>
<symbol id="icon-discord" viewBox="0 0 32 32">
<path d="M26.963 0c1.875 0 3.387 1.516 3.476 3.3v28.7l-3.569-3.031-1.96-1.784-2.139-1.864 0.893 2.94h-18.717c-1.869 0-3.387-1.42-3.387-3.301v-21.653c0-1.784 1.52-3.303 3.393-3.303h22zM18.805 7.577h-0.040l-0.269 0.267c2.764 0.8 4.101 2.049 4.101 2.049-1.781-0.891-3.387-1.336-4.992-1.516-1.16-0.18-2.32-0.085-3.3 0h-0.267c-0.627 0-1.96 0.267-3.747 0.98-0.623 0.271-0.98 0.448-0.98 0.448s1.336-1.336 4.28-2.049l-0.18-0.18c0 0-2.229-0.085-4.636 1.693 0 0-2.407 4.192-2.407 9.36 0 0 1.333 2.32 4.991 2.408 0 0 0.533-0.711 1.073-1.336-2.053-0.624-2.853-1.872-2.853-1.872s0.179 0.088 0.447 0.267h0.080c0.040 0 0.059 0.020 0.080 0.040v0.008c0.021 0.021 0.040 0.040 0.080 0.040 0.44 0.181 0.88 0.36 1.24 0.533 0.621 0.269 1.42 0.537 2.4 0.715 1.24 0.18 2.661 0.267 4.28 0 0.8-0.18 1.6-0.356 2.4-0.713 0.52-0.267 1.16-0.533 1.863-0.983 0 0-0.8 1.248-2.94 1.872 0.44 0.621 1.060 1.333 1.060 1.333 3.659-0.080 5.080-2.4 5.16-2.301 0-5.16-2.42-9.36-2.42-9.36-2.18-1.619-4.22-1.68-4.58-1.68zM19.029 13.461c0.937 0 1.693 0.8 1.693 1.78 0 0.987-0.76 1.787-1.693 1.787s-1.693-0.8-1.693-1.779c0.003-0.987 0.764-1.784 1.693-1.788zM12.972 13.461c0.933 0 1.688 0.8 1.688 1.78 0 0.987-0.76 1.787-1.693 1.787s-1.693-0.8-1.693-1.779c0-0.987 0.76-1.784 1.699-1.788z"></path>
</symbol>
<symbol id="icon-twitter" viewBox="0 0 26 28">
<path d="M25.312 6.375c-0.688 1-1.547 1.891-2.531 2.609 0.016 0.219 0.016 0.438 0.016 0.656 0 6.672-5.078 14.359-14.359 14.359-2.859 0-5.516-0.828-7.75-2.266 0.406 0.047 0.797 0.063 1.219 0.063 2.359 0 4.531-0.797 6.266-2.156-2.219-0.047-4.078-1.5-4.719-3.5 0.313 0.047 0.625 0.078 0.953 0.078 0.453 0 0.906-0.063 1.328-0.172-2.312-0.469-4.047-2.5-4.047-4.953v-0.063c0.672 0.375 1.453 0.609 2.281 0.641-1.359-0.906-2.25-2.453-2.25-4.203 0-0.938 0.25-1.797 0.688-2.547 2.484 3.062 6.219 5.063 10.406 5.281-0.078-0.375-0.125-0.766-0.125-1.156 0-2.781 2.25-5.047 5.047-5.047 1.453 0 2.766 0.609 3.687 1.594 1.141-0.219 2.234-0.641 3.203-1.219-0.375 1.172-1.172 2.156-2.219 2.781 1.016-0.109 2-0.391 2.906-0.781z"></path>
</symbol>
<symbol id="icon-instagram" viewBox="0 0 24 28">
<path d="M16 14c0-2.203-1.797-4-4-4s-4 1.797-4 4 1.797 4 4 4 4-1.797 4-4zM18.156 14c0 3.406-2.75 6.156-6.156 6.156s-6.156-2.75-6.156-6.156 2.75-6.156 6.156-6.156 6.156 2.75 6.156 6.156zM19.844 7.594c0 0.797-0.641 1.437-1.437 1.437s-1.437-0.641-1.437-1.437 0.641-1.437 1.437-1.437 1.437 0.641 1.437 1.437zM12 4.156c-1.75 0-5.5-0.141-7.078 0.484-0.547 0.219-0.953 0.484-1.375 0.906s-0.688 0.828-0.906 1.375c-0.625 1.578-0.484 5.328-0.484 7.078s-0.141 5.5 0.484 7.078c0.219 0.547 0.484 0.953 0.906 1.375s0.828 0.688 1.375 0.906c1.578 0.625 5.328 0.484 7.078 0.484s5.5 0.141 7.078-0.484c0.547-0.219 0.953-0.484 1.375-0.906s0.688-0.828 0.906-1.375c0.625-1.578 0.484-5.328 0.484-7.078s0.141-5.5-0.484-7.078c-0.219-0.547-0.484-0.953-0.906-1.375s-0.828-0.688-1.375-0.906c-1.578-0.625-5.328-0.484-7.078-0.484zM24 14c0 1.656 0.016 3.297-0.078 4.953-0.094 1.922-0.531 3.625-1.937 5.031s-3.109 1.844-5.031 1.937c-1.656 0.094-3.297 0.078-4.953 0.078s-3.297 0.016-4.953-0.078c-1.922-0.094-3.625-0.531-5.031-1.937s-1.844-3.109-1.937-5.031c-0.094-1.656-0.078-3.297-0.078-4.953s-0.016-3.297 0.078-4.953c0.094-1.922 0.531-3.625 1.937-5.031s3.109-1.844 5.031-1.937c1.656-0.094 3.297-0.078 4.953-0.078s3.297-0.016 4.953 0.078c1.922 0.094 3.625 0.531 5.031 1.937s1.844 3.109 1.937 5.031c0.094 1.656 0.078 3.297 0.078 4.953z"></path>
</symbol>
<symbol id="icon-facebook-official" viewBox="0 0 24 28">
<path d="M22.672 2c0.734 0 1.328 0.594 1.328 1.328v21.344c0 0.734-0.594 1.328-1.328 1.328h-6.109v-9.297h3.109l0.469-3.625h-3.578v-2.312c0-1.047 0.281-1.75 1.797-1.75l1.906-0.016v-3.234c-0.328-0.047-1.469-0.141-2.781-0.141-2.766 0-4.672 1.687-4.672 4.781v2.672h-3.125v3.625h3.125v9.297h-11.484c-0.734 0-1.328-0.594-1.328-1.328v-21.344c0-0.734 0.594-1.328 1.328-1.328h21.344z"></path>
</symbol>
<symbol id="icon-github" viewBox="0 0 32 32">
<path d="M16 0.395c-8.836 0-16 7.163-16 16 0 7.069 4.585 13.067 10.942 15.182 0.8 0.148 1.094-0.347 1.094-0.77 0-0.381-0.015-1.642-0.022-2.979-4.452 0.968-5.391-1.888-5.391-1.888-0.728-1.849-1.776-2.341-1.776-2.341-1.452-0.993 0.11-0.973 0.11-0.973 1.606 0.113 2.452 1.649 2.452 1.649 1.427 2.446 3.743 1.739 4.656 1.33 0.143-1.034 0.558-1.74 1.016-2.14-3.554-0.404-7.29-1.777-7.29-7.907 0-1.747 0.625-3.174 1.649-4.295-0.166-0.403-0.714-2.030 0.155-4.234 0 0 1.344-0.43 4.401 1.64 1.276-0.355 2.645-0.532 4.005-0.539 1.359 0.006 2.729 0.184 4.008 0.539 3.054-2.070 4.395-1.64 4.395-1.64 0.871 2.204 0.323 3.831 0.157 4.234 1.026 1.12 1.647 2.548 1.647 4.295 0 6.145-3.743 7.498-7.306 7.895 0.574 0.497 1.085 1.47 1.085 2.963 0 2.141-0.019 3.864-0.019 4.391 0 0.426 0.288 0.925 1.099 0.768 6.354-2.118 10.933-8.113 10.933-15.18 0-8.837-7.164-16-16-16z"></path>
</symbol>
<symbol id="icon-user" viewBox="0 0 32 32">
<path d="M18 22.082v-1.649c2.203-1.241 4-4.337 4-7.432 0-4.971 0-9-6-9s-6 4.029-6 9c0 3.096 1.797 6.191 4 7.432v1.649c-6.784 0.555-12 3.888-12 7.918h28c0-4.030-5.216-7.364-12-7.918z"></path>
</symbol>
<symbol id="icon-key" viewBox="0 0 32 32">
<path d="M22 0c-5.523 0-10 4.477-10 10 0 0.626 0.058 1.238 0.168 1.832l-12.168 12.168v6c0 1.105 0.895 2 2 2h2v-2h4v-4h4v-4h4l2.595-2.595c1.063 0.385 2.209 0.595 3.405 0.595 5.523 0 10-4.477 10-10s-4.477-10-10-10zM24.996 10.004c-1.657 0-3-1.343-3-3s1.343-3 3-3 3 1.343 3 3-1.343 3-3 3z"></path>
</symbol>
<symbol id="icon-user-tie" viewBox="0 0 32 32">
<path d="M10 6c0-3.314 2.686-6 6-6s6 2.686 6 6c0 3.314-2.686 6-6 6s-6-2.686-6-6zM24.002 14h-1.107l-6.222 12.633 2.327-11.633-3-3-3 3 2.327 11.633-6.222-12.633h-1.107c-3.998 0-3.998 2.687-3.998 6v10h24v-10c0-3.313 0-6-3.998-6z"></path>
</symbol>
<symbol id="icon-lock" viewBox="0 0 32 32">
<path d="M18.5 14h-0.5v-6c0-3.308-2.692-6-6-6h-4c-3.308 0-6 2.692-6 6v6h-0.5c-0.825 0-1.5 0.675-1.5 1.5v15c0 0.825 0.675 1.5 1.5 1.5h17c0.825 0 1.5-0.675 1.5-1.5v-15c0-0.825-0.675-1.5-1.5-1.5zM6 8c0-1.103 0.897-2 2-2h4c1.103 0 2 0.897 2 2v6h-8v-6z"></path>
</symbol>
<symbol id="icon-log-out" viewBox="0 0 20 20">
<path d="M19 10l-6-5v3h-7v4h7v3l6-5zM3 3h8v-2h-8c-1.1 0-2 0.9-2 2v14c0 1.1 0.9 2 2 2h8v-2h-8v-14z"></path>
</symbol>
<symbol id="icon-settings" viewBox="0 0 32 32">
<path d="M30.391 12.68l-3.064-0.614c-0.154-0.443-0.336-0.873-0.537-1.289l1.736-2.604c0.529-0.793 0.424-1.85-0.25-2.523l-1.924-1.924c-0.387-0.387-0.898-0.586-1.416-0.586-0.383 0-0.77 0.11-1.107 0.336l-2.604 1.735c-0.418-0.202-0.848-0.382-1.291-0.536l-0.614-3.065c-0.186-0.936-1.008-1.608-1.961-1.608h-2.72c-0.953 0-1.774 0.673-1.961 1.608l-0.614 3.065c-0.443 0.154-0.873 0.335-1.289 0.536l-2.603-1.735c-0.339-0.226-0.725-0.336-1.109-0.336-0.517 0-1.028 0.199-1.415 0.586l-1.923 1.924c-0.674 0.674-0.779 1.73-0.25 2.523l1.735 2.604c-0.202 0.417-0.382 0.847-0.536 1.29l-3.066 0.613c-0.935 0.187-1.608 1.008-1.608 1.961v2.72c0 0.953 0.673 1.775 1.608 1.961l3.065 0.615c0.154 0.443 0.335 0.873 0.536 1.289l-1.734 2.604c-0.529 0.793-0.424 1.85 0.25 2.523l1.924 1.924c0.387 0.387 0.898 0.586 1.415 0.586 0.384 0 0.771-0.111 1.108-0.336l2.604-1.736c0.417 0.203 0.847 0.383 1.29 0.537l0.613 3.064c0.187 0.936 1.008 1.609 1.961 1.609h2.72c0.953 0 1.775-0.674 1.961-1.609l0.615-3.064c0.443-0.154 0.873-0.336 1.289-0.537l2.604 1.736c0.338 0.225 0.725 0.336 1.107 0.336 0.518 0 1.029-0.199 1.416-0.586l1.924-1.924c0.674-0.674 0.779-1.73 0.25-2.523l-1.736-2.604c0.203-0.418 0.383-0.848 0.537-1.291l3.064-0.613c0.935-0.185 1.609-1.008 1.609-1.961v-2.72c0-0.953-0.674-1.774-1.609-1.961zM26.934 17.975c-0.695 0.139-1.264 0.635-1.496 1.305-0.129 0.369-0.279 0.727-0.447 1.074-0.311 0.639-0.258 1.393 0.135 1.982l1.736 2.604-1.924 1.924-2.604-1.736c-0.334-0.223-0.721-0.336-1.109-0.336-0.297 0-0.596 0.066-0.871 0.199-0.348 0.168-0.705 0.32-1.076 0.449-0.668 0.232-1.164 0.801-1.303 1.496l-0.615 3.066h-2.72l-0.613-3.066c-0.139-0.695-0.635-1.264-1.304-1.496-0.369-0.129-0.728-0.279-1.075-0.447-0.276-0.135-0.574-0.201-0.872-0.201-0.389 0-0.775 0.113-1.109 0.336l-2.604 1.736-1.924-1.924 1.735-2.604c0.393-0.59 0.444-1.344 0.137-1.98-0.168-0.348-0.319-0.705-0.448-1.076-0.232-0.668-0.802-1.164-1.496-1.303l-3.065-0.615-0.002-2.721 3.066-0.613c0.694-0.139 1.264-0.635 1.496-1.304 0.129-0.369 0.278-0.728 0.447-1.075 0.31-0.638 0.258-1.392-0.136-1.981l-1.734-2.604 1.923-1.924 2.604 1.735c0.334 0.223 0.721 0.336 1.109 0.336 0.297 0 0.595-0.066 0.871-0.199 0.347-0.168 0.705-0.319 1.075-0.448 0.669-0.232 1.165-0.802 1.304-1.496l0.614-3.065 2.72-0.001 0.613 3.066c0.139 0.694 0.635 1.264 1.305 1.496 0.369 0.129 0.727 0.278 1.074 0.447 0.277 0.134 0.574 0.2 0.873 0.2 0.389 0 0.775-0.113 1.109-0.336l2.604-1.735 1.924 1.924-1.736 2.604c-0.393 0.59-0.443 1.343-0.137 1.98 0.168 0.347 0.32 0.705 0.449 1.075 0.232 0.669 0.801 1.165 1.496 1.304l3.064 0.614 0.003 2.72-3.066 0.614zM16 9.001c-3.865 0-7 3.135-7 7 0 3.866 3.135 7 7 7s7-3.135 7-7c0-3.865-3.135-7-7-7zM16 22.127c-3.382 0-6.125-2.744-6.125-6.125s2.743-6.125 6.125-6.125c3.381 0 6.125 2.743 6.125 6.125 0 3.381-2.744 6.125-6.125 6.125zM16 12.001c-2.21 0-4 1.79-4 4s1.79 4 4 4c2.209 0 4-1.791 4-4s-1.791-4-4-4zM16 19.002c-1.656 0-3-1.344-3-3s1.344-3 3-3 3 1.344 3 3c0 1.656-1.344 3-3 3z"></path>
</symbol>
</defs>
</svg>
